<svg height="512pt" viewBox="-30 0 512 512.00051" width="512pt" xmlns="http://www.w3.org/2000/svg" xmlns:xlink="http://www.w3.org/1999/xlink"><linearGradient id="a"><stop offset="0" stop-color="#ffb211"/><stop offset=".4471" stop-color="#ffb012"/><stop offset=".6081" stop-color="#ffa915"/><stop offset=".7229" stop-color="#ff9e1a"/><stop offset=".8157" stop-color="#ff8d21"/><stop offset=".8952" stop-color="#ff772b"/><stop offset=".9643" stop-color="#ff5c37"/><stop offset="1" stop-color="#ff4b3e"/></linearGradient><radialGradient id="b" cx="72.63174886" cy="72.6326344248" gradientUnits="userSpaceOnUse" r="478.5990323146" xlink:href="#a"/><linearGradient id="c" gradientUnits="userSpaceOnUse" x1="162.1978547964" x2="-144.2501388412" y1="292.9030600526" y2="86.3467109058"><stop offset=".0013" stop-color="#e7eeed" stop-opacity="0"/><stop offset=".7731" stop-color="#f9fbfa" stop-opacity=".772549"/><stop offset="1" stop-color="#fff"/></linearGradient><linearGradient id="d" gradientUnits="userSpaceOnUse" x1="321.2623686346" x2="214.5151415902" y1="275.479692566" y2="-32.6564963068"><stop offset="0" stop-color="#ffb211" stop-opacity="0"/><stop offset=".1784" stop-color="#ff931e" stop-opacity=".176471"/><stop offset=".3999" stop-color="#ff742c" stop-opacity=".4"/><stop offset=".6151" stop-color="#ff5d36" stop-opacity=".615686"/><stop offset=".8191" stop-color="#ff503c" stop-opacity=".819608"/><stop offset="1" stop-color="#ff4b3e"/></linearGradient><linearGradient id="e" gradientTransform="matrix(.979727 -.219256 .219256 .979727 674.434898 452.028217)" gradientUnits="userSpaceOnUse" x1="-299.345" x2="-211.5525" y1="-445.3277" y2="-341.3275"><stop offset="0" stop-color="#acc130"/><stop offset="1" stop-color="#97a03b"/></linearGradient><linearGradient id="f" gradientTransform="matrix(.979727 -.219256 .219256 .979727 674.434898 452.028217)" gradientUnits="userSpaceOnUse" x1="-245.7505" x2="-326.1105" y1="-393.7054" y2="-465.2867"><stop offset="0" stop-color="#97a03b" stop-opacity="0"/><stop offset="1" stop-color="#575c55"/></linearGradient><linearGradient id="g" gradientTransform="matrix(.979727 -.219256 .219256 .979727 674.434898 452.028217)" gradientUnits="userSpaceOnUse" x1="-317.3879" x2="-296.4524" y1="-441.3369" y2="-414.3234"><stop offset="0" stop-color="#97a03b"/><stop offset="1" stop-color="#6c7d47"/></linearGradient><linearGradient id="h" gradientUnits="userSpaceOnUse" x1="154.7507614004" x2="237.3928173028" y1="110.8803559574" y2="110.8803559574"><stop offset="0" stop-color="#c08552"/><stop offset="1" stop-color="#895738"/></linearGradient><linearGradient id="i" gradientUnits="userSpaceOnUse" x1="227.3468710254" x2="224.5956227844" xlink:href="#a" y1="139.957751981" y2="220.2932970884"/><path d="m305.8125 150.308594c-6.355469 0-12.613281.507812-18.75 1.492187-40.757812 6.53125-82.167969 6.53125-122.925781 0-6.136719-.984375-12.394531-1.492187-18.75-1.492187-80.429688-.003906-146.027344 82.289062-145.38281275 182.332031.64453175 99.195313 65.48437475 179.359375 145.38281275 179.359375 4.234375 0 8.429687-.226562 12.574219-.667969 44.933593-4.789062 90.34375-4.789062 135.277343 0 4.144531.441407 8.339844.667969 12.574219.667969 79.894531 0 144.738281-80.164062 145.382812-179.359375.648438-100.042969-64.953124-182.335937-145.382812-182.332031zm0 0" fill="url(#b)"/><path d="m353.367188 308.507812c0-82.703124-75.226563-149.75-168.019532-149.75-92.792968 0-168.015625 67.046876-168.015625 149.75 0 82.703126 75.222657 149.746094 168.015625 149.746094 92.792969 0 168.019532-67.042968 168.019532-149.746094zm0 0" fill="url(#c)"/><path d="m419.726562 443.535156c19.472657-30.5 31.195313-69 31.46875-110.894531.648438-100.042969-64.953124-182.335937-145.382812-182.332031-6.355469 0-12.613281.507812-18.75 1.492187-24.894531 3.988281-50.027344 5.527344-75.109375 4.644531 1.96875 13.761719 2.894531 26.933594 3.199219 38.757813-17.644532-.433594-33.710938-1.945313-46.660156-4.21875zm0 0" fill="url(#d)"/><path d="m234.078125 184.800781s-98.601563-143.898437 119.054687-184.507812c9.082032-1.695313 17.855469 4.140625 19.921876 13.144531 9.925781 43.296875 21.925781 161.40625-138.976563 171.363281zm0 0" fill="url(#e)"/><path d="m373.054688 13.4375c-1.144532-4.992188-4.355469-9.003906-8.535157-11.304688-72.109375 78.632813-130.441406 182.667969-130.441406 182.667969 160.902344-9.957031 148.902344-128.066406 138.976563-171.363281zm0 0" fill="url(#f)"/><path d="m337.121094 66.769531c-1.683594.601563-3.410156 1.078125-5.113282 1.574219-1.703124.496094-3.390624.996094-5.105468 1.398438-1.703125.441406-3.480469.636718-5.226563.859374-1.746093.214844-3.386719.699219-4.972656 1.433594-1.566406.757813-3.105469 1.589844-4.644531 2.617188 1.28125-2.050782 2.558594-4.097656 3.835937-6.152344l6.371094-9.949219c2.109375-3.335937 4.402344-6.507812 6.566406-9.8125 4.429688-6.515625 9.078125-12.8125 14.171875-18.820312l-1.242187-1.34375-4.550781 3.921875-2.292969 1.980468c-.742188.675782-1.433594 1.390626-2.152344 2.085938-2.796875 2.839844-5.757813 5.605469-8.402344 8.578125-5.488281 5.828125-10.652343 11.90625-15.863281 17.964844-.972656 1.191406-1.945312 2.386719-2.917969 3.574219.003907-1.28125-.085937-2.550782-.386719-3.824219-.390624-1.714844-.824218-3.449219-1-5.199219-.214843-1.75-.332031-3.507812-.453124-5.277344-.128907-1.769531-.277344-3.554687-.296876-5.339844-.207031-3.601562-.078124-7.203124-.046874-10.917968l-.988282-.246094c-1.601562 3.367188-2.957031 6.890625-4.007812 10.515625-.546875 1.8125-.964844 3.648437-1.40625 5.503906-.34375 1.855469-.691406 3.726563-.9375 5.613281-.261719 1.886719-.632813 3.78125-.921875 5.703126-.246094 1.917968-.171875 3.839843.308593 5.71875.097657.367187.203126.734374.316407 1.101562 1.21875 3.988281.339843 8.324219-2.226563 11.609375l-.050781.0625c-4.46875 5.722656-8.796875 11.523437-13.167969 17.3125-.035156-1.800781-.226562-3.496094-.488281-5.171875-.300781-1.722656-.839844-3.347656-1.65625-4.90625-.8125-1.558594-1.664063-3.128906-2.273437-4.78125-.644532-1.636719-1.199219-3.3125-1.757813-4.992188-.566406-1.683593-1.160156-3.375-1.625-5.097656-1.101563-3.433594-1.878906-6.957031-2.78125-10.558594l-1.015625.007813c-.707031 3.664063-1.136719 7.410156-1.25 11.183594-.074219 1.890625-.019531 3.777343.015625 5.679687.132813 1.886719.265625 3.785156.5 5.671875.21875 1.890625.332031 3.820313.535156 5.75.238281 1.917969.792969 3.765625 1.730469 5.460938.421875.746093.875 1.480469 1.367188 2.199219 2.414062 3.488281 2.144531 8.183593-.453126 11.539062-2.234374 2.878906-4.472656 5.757812-6.683593 8.652344-2.808594 3.664062-5.417969 7.460937-7.875 11.347656-.066407-1.546875-.238281-3.027344-.464844-4.492188-.300781-1.722656-.839844-3.34375-1.65625-4.902343-.8125-1.5625-1.664063-3.132813-2.273437-4.785157-.644532-1.636718-1.199219-3.3125-1.757813-4.992187-.566406-1.679687-1.160156-3.371094-1.625-5.097656-1.101563-3.433594-1.878906-6.953125-2.78125-10.558594l-1.015625.011719c-.707031 3.660156-1.136719 7.410156-1.25 11.183594-.078125 1.890624-.019531 3.777343.015625 5.679687.132813 1.882813.265625 3.78125.5 5.667969.21875 1.890625.332031 3.824218.53125 5.753906.242187 1.917969.796875 3.761719 1.730469 5.457031.949218 1.675781 2.054687 3.304688 3.449218 4.765625 1.597657 1.675782 2.011719 4.140625.949219 6.195313-2.75 5.320312-7.644531 14.984375-9.890625 20.300781-3.078125 7.425781-5.894531 15.007812-7.773437 23.140625l1.566406.949219c6.351563-5.382813 11.894531-11.230469 17.179687-17.234375 5.261719-6.015625 10.210938-12.214844 14.898438-18.578125.082031-.113282.164062-.222656.25-.335938 1.511719-2.050781 4.195312-2.699218 6.554688-1.738281 1.738281.710937 3.523437 1.144531 5.296874 1.433594 1.917969.289062 3.839844.171875 5.722657-.265625 1.878906-.476563 3.730469-1.039063 5.578125-1.492188 1.851562-.429687 3.679687-.964844 5.496094-1.492187 1.796874-.625 3.585937-1.226563 5.332031-1.949219 3.503906-1.410156 6.871093-3.113281 10.0625-5.042969l-.34375-.957031c-3.691407.402344-7.265625.890625-10.867188 1.046875-1.78125.15625-3.574219.1875-5.34375.238281-1.773437.058594-3.535156.117188-5.296875.078125-1.757812.003907-3.527344-.257812-5.273437-.476562-1.746094-.226563-3.453125-.171875-5.171875.144531-1.859375.371094-3.714844.851562-5.625 1.558594 2.234375-3.480469 4.351562-7.039063 6.359375-10.671875 1.578125-2.914063 3.746093-6.820313 5.664062-10.246094 2.035157-3.644531 6.183594-5.679687 10.269531-4.832031 1.996094.414062 4.042969.53125 5.886719.832031 1.917969.289063 3.839844.171875 5.722657-.265625 1.878906-.480469 3.730468-1.042969 5.578124-1.492188 1.851563-.433593 3.679688-.964843 5.496094-1.492187 1.796875-.625 3.585938-1.226563 5.332032-1.953125 3.503906-1.40625 6.871093-3.109375 10.0625-5.039062l-.34375-.960938c-3.691407.402344-7.265626.894531-10.867188 1.046875-1.78125.160156-3.574219.1875-5.34375.242187-1.773438.054688-3.535156.117188-5.296875.078126-1.757813 0-3.527344-.257813-5.273437-.476563-1.742188-.230469-3.453126-.171875-5.171876.140625-3.273437.65625-6.53125 1.621094-10.152343 3.699219 4.070312-6.734375 8.089843-13.519531 12.261719-20.1875l.15625-.261719c2.445312-4.113281 6.933593-6.71875 11.710937-6.433594 1.351563.078125 2.683594.03125 3.992187-.089844 1.929688-.199218 3.761719-.792968 5.472657-1.6875 1.703125-.933593 3.351562-1.945312 5.03125-2.839843 1.683593-.882813 3.320312-1.855469 4.941406-2.824219 1.585937-1.054688 3.167969-2.082031 4.675781-3.222656 3.039063-2.238282 5.875-4.734375 8.480469-7.398438l-.570313-.84375c-3.476562 1.316406-6.8125 2.6875-10.261718 3.734375zm0 0" fill="url(#g)"/><path d="m237.390625 198.050781c-4.210937.355469-8.554687.546875-12.976563.546875-3.117187 0-6.175781-.089844-9.191406-.28125-.371094-21.414062-2.71875-47.695312-9.785156-73.972656-4.195312-15.652344-10.078125-31.316406-18.222656-45.964844-13.773438-24.753906-27.710938-35.011718-27.859375-35.117187-4.9375-3.574219-6.089844-10.476563-2.558594-15.441407 3.546875-4.953124 10.390625-6.148437 15.371094-2.648437 2.027343 1.421875 38.429687 27.90625 55.957031 98.035156 5.246094 20.914063 8.792969 45.683594 9.265625 74.84375zm0 0" fill="url(#h)"/><path d="m225.597656 195.335938c-21.734375 0-41.640625-1.636719-57.105468-4.351563 1.816406 9.796875 26.683593 17.558594 57.105468 17.558594 30.425782 0 55.289063-7.761719 57.109375-17.558594-15.464843 2.714844-35.371093 4.351563-57.109375 4.351563zm0 0" fill="url(#i)"/></svg>