<svg id="Capa_1" enable-background="new 0 0 497 497" height="512" viewBox="0 0 497 497" width="512" xmlns="http://www.w3.org/2000/svg"><path d="m195 0c-49.626 0-90 40.374-90 90l15 30 15-30c0-33.084 26.916-60 60-60 8.284 0 15-6.716 15-15s-6.716-15-15-15z" fill="#6a6b1a"/><path d="m75 90c-41.421 0-75 33.579-75 75 0 2.68.147 5.325.421 7.932l29.832 283.827c2.377 22.615 21.502 40.241 44.747 40.241s42.37-17.626 44.748-40.241l.252-366.759s-3.579 0-45 0z" fill="#aaab33"/><path d="m165 90h-44.748v366.759c2.378 22.615 21.503 40.241 44.748 40.241s42.37-17.626 44.748-40.241l29.832-283.827c.273-2.607.42-5.252.42-7.932 0-41.421-33.579-75-75-75z" fill="#91952d"/><path d="m120 90v407c23.245 0 42.37-17.626 44.748-40.241l29.832-283.827c.273-2.607.42-5.252.42-7.932 0-41.421-33.579-75-75-75z" fill="#7e8026"/><path d="m146.849 456.759 17.899-283.827c.164-2.607.252-5.252.252-7.932 0-41.421-20.147-75-45-75-41.421 0-75 33.579-75 75 0 2.68.147 5.325.421 7.932l29.832 283.827c2.377 22.615 21.502 40.241 44.747 40.241 13.947 0 25.422-17.626 26.849-40.241z" fill="#91952d"/><path d="m302 497c49.626 0 90-40.374 90-90l-15-30-15 30c0 33.084-26.916 60-60 60-8.284 0-15 6.716-15 15s6.716 15 15 15z" fill="#6a6b1a"/><path d="m332 407c-41.421 0-75-33.579-75-75 0-2.68.147-5.325.421-7.932l29.832-283.827c2.377-22.615 21.502-40.241 44.747-40.241s42.37 17.626 44.748 40.241l.252 366.759s-3.579 0-45 0z" fill="#ff6529"/><path d="m422 407h-44.748v-366.759c2.378-22.615 21.503-40.241 44.748-40.241s42.37 17.626 44.748 40.241l29.832 283.827c.273 2.607.42 5.252.42 7.932 0 41.421-33.579 75-75 75z" fill="#ff4a26"/><path d="m377 407v-407c23.245 0 42.37 17.626 44.748 40.241l29.832 283.827c.273 2.607.42 5.252.42 7.932 0 41.421-33.579 75-75 75z" fill="#ff2e23"/><path d="m403.849 40.241 17.899 283.827c.164 2.607.252 5.252.252 7.932 0 41.421-20.147 75-45 75-41.421 0-75-33.579-75-75 0-2.68.147-5.325.421-7.932l29.832-283.827c2.377-22.615 21.502-40.241 44.747-40.241 13.947 0 25.422 17.626 26.849 40.241z" fill="#ff4a26"/></svg>