<svg height="512pt" viewBox="-76 0 512 512" width="512pt" xmlns="http://www.w3.org/2000/svg"><path d="m45 195c0 41.992188-10.175781 62.566406-20.945312 84.351562-11.824219 23.914063-24.054688 48.640626-24.054688 97.648438 0 74.4375 60.5625 135 135 135 15.464844 0 30.570312-2.585938 45-7.691406v-444.308594c-74.4375 0-135 60.5625-135 135zm0 0" fill="#ee9253"/><path d="m335.945312 279.351562c-10.769531-21.785156-20.945312-42.359374-20.945312-84.351562 0-74.4375-60.5625-135-135-135v444.308594c14.429688 5.105468 29.535156 7.691406 45 7.691406 74.4375 0 135-60.5625 135-135 0-49.007812-12.230469-73.734375-24.054688-97.648438zm0 0" fill="#eb6a2e"/><path d="m180 30.050781-10 59.949219h25v-15c0-24.8125 20.1875-45 45-45v-30c-24.507812 0-46.304688 11.816406-60 30.050781zm0 0" fill="#6b3628"/><path d="m165 75v15h15v-59.949219c-9.414062 12.535157-15 28.101563-15 44.949219zm0 0" fill="#7b503a"/><path d="m242.300781 283.5625c-3.753906-22.777344-7.300781-44.289062-7.300781-88.5625 0-65.019531-17.210938-135-55-135l-30 226 30 226c39.90625 0 70-58.039062 70-135 0-46.726562-3.914062-70.476562-7.699219-93.4375zm0 0" fill="#ee9253"/><path d="m125 195c0 44.273438-3.546875 65.785156-7.300781 88.5625-3.785157 22.964844-7.699219 46.710938-7.699219 93.4375 0 76.960938 30.09375 135 70 135v-452c-37.789062 0-55 69.980469-55 135zm0 0" fill="#efbe78"/></svg>